# xmcd CD database file
#
# Track frame offsets:
#	150
#	748
#	35407
#	44239
#	76953
#	107625
#	144926
#	172859
#	199180
#	227677
#	253087
#	270793
#	278636
#	305428
#	338913
#	350071
#
# Disc length: 4671 seconds
#
# Revision: 0
# Processed by: cddbd v1.5.2PL0 Copyright (c) Steve Scherf et al.
# Submitted via: CDex 1.50
#
DISCID=da123d10
DTITLE=Riek, Saleem - Herzenslust (Disk 2)
DYEAR=1900
DGENRE=New Age
TTITLE0=Wunschlos glücklich? 1
TTITLE1=Wunschlos glücklich? 2
TTITLE2=Musik Humor
TTITLE3=Teil 3 - Hindernisse aus dem Weg räumen - Polarisierungen erkennen und lösen 1
TTITLE4=Teil 3 - Hindernisse aus dem Weg räumen - Polarisierungen erkennen und lösen 2
TTITLE5=Teil 3 - Hindernisse aus dem Weg räumen - Schnell einen Zaum drum herum? 1
TTITLE6=Teil 3 - Hindernisse aus dem Weg räumen - Schnell einen Zaum drum herum? 2
TTITLE7=Teil 3 - Hindernisse aus dem Weg räumen - Schnell einen Zaum drum herum? 3
TTITLE8=Teil 3 - Hindernisse aus dem Weg räumen - Schnell einen Zaum drum herum? 4
TTITLE9=Teil 3 - Hindernisse aus dem Weg räumen - Schnell einen Zaum drum herum? 5
TTITLE10=Teil 3 - Hindernisse aus dem Weg räumen - Schnell einen Zaum drum herum? 6
TTITLE11=Musik Tanz der Seelen
TTITLE12=Teil 4 - Tantra und die Kunst des Seins - Die Lust als Wegweiser 1
TTITLE13=Teil 4 - Tantra und die Kunst des Seins - Die Lust als Wegweiser 2
TTITLE14=Teil 4 - Tantra und die Kunst des Seins - Die Lust als Wegweiser 3
TTITLE15=Teil 4 - Tantra und die Kunst des Seins - Die Lust als Wegweiser 4
EXTD=
EXTT0=
EXTT1=
EXTT2=
EXTT3=
EXTT4=
EXTT5=
EXTT6=
EXTT7=
EXTT8=
EXTT9=
EXTT10=
EXTT11=
EXTT12=
EXTT13=
EXTT14=
EXTT15=
PLAYORDER=
